SplineFontDB: 3.2
FontName: AzonixRegular
FullName: Azonix
FamilyName: Azonix
Weight: Normal
Copyright: Copyright 2018 Adobe Systems Incorporated. All rights reserved.
Version: 001.001
ItalicAngle: 0
UnderlinePosition: 0
UnderlineWidth: 0
Ascent: 800
Descent: 200
InvalidEm: 0
sfntRevision: 0x00010000
LayerCount: 2
Layer: 0 0 "Hinten" 1
Layer: 1 0 "Vorne" 0
XUID: [1021 792 -243601081 28489]
StyleMap: 0x0040
FSType: 0
OS2Version: 3
OS2_WeightWidthSlopeOnly: 0
OS2_UseTypoMetrics: 0
CreationTime: 1539857749
ModificationTime: 1768702312
PfmFamily: 81
TTFWeight: 400
TTFWidth: 5
LineGap: 0
VLineGap: 0
Panose: 0 0 0 0 0 0 0 0 0 0
OS2TypoAscent: 751
OS2TypoAOffset: 0
OS2TypoDescent: -257
OS2TypoDOffset: 0
OS2TypoLinegap: 0
OS2WinAscent: 817
OS2WinAOffset: 0
OS2WinDescent: 183
OS2WinDOffset: 0
HheadAscent: 751
HheadAOffset: 0
HheadDescent: -257
HheadDOffset: 0
OS2SubXSize: 650
OS2SubYSize: 699
OS2SubXOff: 0
OS2SubYOff: 140
OS2SupXSize: 650
OS2SupYSize: 699
OS2SupXOff: 0
OS2SupYOff: 479
OS2StrikeYSize: 49
OS2StrikeYPos: 258
OS2CapHeight: 700
OS2XHeight: 700
OS2Vendor: 'XXXX'
OS2CodePages: 00000003.00000000
OS2UnicodeRanges: 80000003.00000002.00000000.00000000
Lookup: 258 0 0 "'kern' Horizontale Unterschneidung in Lateinisch Nachschlagetabelle 0" { "'kern' Horizontale Unterschneidung in Lateinisch Nachschlagetabelle 0 Subtabelle"  } ['kern' ('DFLT' <'dflt' > 'latn' <'dflt' > ) ]
DEI: 91125
LangName: 1033 "" "" "" "1.010;AzonixRegular" "AzonixRegular" "Version 1.010;Fontself Maker 3.0.1" "" "Please refer to the Copyright section for the font trademark attribution notices." "mixofx.com" "Mixo (mixofx)" "" "behance.net/mixofx" "mixofx.com" "Free Font" "" "" "" "" "" "Azonix Modern Font"
Encoding: UnicodeBmp
UnicodeInterp: none
NameList: AGL For New Fonts
DisplaySize: -36
AntiAlias: 1
FitToEm: 0
WinInfo: 0 51 17
BeginPrivate: 6
BlueValues 21 [0 0 700 700 701 701]
BlueShift 1 2
StdHW 5 [125]
StdVW 5 [125]
StemSnapH 36 [21 117 121 125 194 200 221 246 250]

StartChar: .notdef
Encoding: 65536 -1 0
Width: 527
GlyphClass: 1
Flags: MW
HStem: 0 21<79 449 79 477> 680 20<78 78 78 449>
VStem: 50 21<49 650 49 700> 457 20<47 652 652 652>
LayerCount: 2
Fore
SplineSet
50 700 m 1
 477 700 l 1
 477 0 l 1
 50 0 l 1
 50 700 l 1
78 680 m 1
 263 371 l 1
 449 680 l 1
 78 680 l 1
251 350 m 1
 71 650 l 1
 71 49 l 1
 251 350 l 1
264 329 m 1
 79 21 l 1
 449 21 l 1
 264 329 l 1
276 350 m 1
 457 47 l 1
 457 652 l 1
 276 350 l 1
EndSplineSet
EndChar

StartChar: exclam
Encoding: 33 33 5
Width: 225
GlyphClass: 1
Flags: MW
HStem: -7 125<50 175 50 175> 673 20G<50 175 175 175>
VStem: 50 125<-7 118 525 693>
LayerCount: 2
Fore
SplineSet
175 -7 m 1
 50 -7 l 1
 50 118 l 1
 175 118 l 1
 175 -7 l 1
50 693 m 1
 175 693 l 1
 175 525 l 1
 142 169 l 1
 83 169 l 1
 50 525 l 1
 50 693 l 1
EndSplineSet
EndChar

StartChar: quotedbl
Encoding: 34 34 6
Width: 384
GlyphClass: 1
Flags: MW
HStem: 504 246<49 174 49 174 209 334 49 209>
VStem: 49 125<504 750> 209 125<504 750>
LayerCount: 2
Fore
SplineSet
334 504 m 1
 209 504 l 1
 209 750 l 1
 334 750 l 1
 334 504 l 1
174 504 m 1
 49 504 l 1
 49 750 l 1
 174 750 l 1
 174 504 l 1
EndSplineSet
EndChar

StartChar: numbersign
Encoding: 35 35 7
Width: 803
GlyphClass: 1
Flags: MW
HStem: -8 21G<157 284 157 157 157 157 157 157 382 509 382 382 382 382 382 382> 149 125<565 678 540 703 540 703> 410 125<128 128 128 240 103 128 240 240 240 240 465 465 616 729> 672 20G<296 296 296 423 423 423 521 647 647 647>
LayerCount: 2
Fore
SplineSet
591 410 m 1
 566 278 l 1
 565 274 l 1
 703 274 l 1
 679 153 l 1
 678 149 l 1
 540 149 l 1
 540 149 l 1
 509 -8 l 1
 382 -8 l 1
 382 -8 l 1
 382 -8 l 1
 413 149 l 1
 315 149 l 1
 315 149 l 1
 284 -8 l 1
 157 -8 l 1
 157 -8 l 1
 157 -8 l 1
 164 26 l 1
 176 90 l 1
 188 149 l 1
 51 149 l 1
 57 179 l 1
 73 263 l 1
 76 275 l 1
 76 275 l 1
 213 275 l 1
 213 275 l 1
 214 281 l 1
 240 410 l 1
 240 410 l 1
 240 410 l 1
 103 410 l 1
 128 534 l 1
 128 535 l 1
 128 535 l 1
 128 535 l 1
 265 535 l 1
 265 535 l 1
 265 535 l 1
 265 535 l 1
 265 535 l 1
 296 692 l 1
 296 692 l 1
 423 692 l 1
 392 535 l 1
 490 535 l 1
 490 535 l 1
 521 692 l 1
 647 692 l 1
 616 535 l 1
 754 535 l 1
 729 410 l 1
 591 410 l 1
 591 410 l 1
465 410 m 1
 466 411 l 1
 466 411 l 1
 368 411 l 1
 368 411 l 1
 342 279 l 1
 341 275 l 1
 438 275 l 1
 439 279 l 1
 465 410 l 1
EndSplineSet
EndChar

StartChar: dollar
Encoding: 36 36 8
Width: 762
GlyphClass: 1
Flags: MW
HStem: -112 21G<318 443 318 318> 14 125<187 318 239 318> 14 193<50 239 50 318> 271 126<238 239 239 265 265 271 271 318> 461 193<51 319 174 319> 529 125<220.5 319 239 318 444 523> 769 20G<319 444 444 444>
VStem: 51 124 319 125<654 789> 587 125<461 465 461 482.5>
LayerCount: 2
Fore
SplineSet
712 461 m 1xdbc0
 587 461 l 1xdbc0
 587 465 l 2
 587 500 558 529 523 529 c 2
 444 529 l 1
 444 397 l 1
 491 397 l 1
 497 397 l 1
 523 397 l 2
 574 397 620 377 654 344 c 0
 663 335 671 325 678 314 c 0
 699 284 711 247 711 207 c 2
 711 203 l 2
 711 99 627 14 523 14 c 2
 443 14 l 1
 443 -112 l 1
 318 -112 l 1
 318 14 l 1
 239 14 l 2
 135 14 50 99 50 203 c 2
 50 207 l 1
 175 207 l 1xb7c0
 175 203 l 2
 175 168 204 139 239 139 c 2
 318 139 l 1
 318 271 l 1
 271 271 l 1
 265 271 l 1
 239 271 l 2
 188 271 142 291 108 324 c 0
 99 333 91 343 84 354 c 0
 63 384 51 421 51 461 c 2
 51 465 l 2
 51 569 135 654 239 654 c 2
 319 654 l 1
 319 789 l 1
 444 789 l 1
 444 654 l 1
 523 654 l 2
 627 654 712 569 712 465 c 2
 712 461 l 1xdbc0
318 397 m 1
 318 529 l 1
 238 529 l 2xd7c0
 203 529 174 500 174 465 c 2
 174 461 l 2
 174 426 203 397 238 397 c 2
 318 397 l 1
523 272 m 2
 443 272 l 1
 443 140 l 1
 523 140 l 2
 558 140 587 169 587 204 c 2
 587 208 l 2
 587 243 558 272 523 272 c 2
EndSplineSet
EndChar

StartChar: percent
Encoding: 37 37 9
Width: 928
GlyphClass: 1
Flags: MW
HStem: -15 21G<204 345 204 204> -14 124<684.5 713.5 684.5 748> 216 124<684.5 713.5> 331 124<212.5 241.5 212.5 276> 561 124<212.5 241.5>
VStem: 50 124<493.5 522.5 493.5 557> 280 124<493.5 522.5> 522 124<148.5 177.5 148.5 212> 752 124<148.5 177.5>
LayerCount: 2
Fore
SplineSet
572 685 m 1xaf80
 713 685 l 1
 345 -15 l 1
 204 -15 l 1
 572 685 l 1xaf80
699 340 m 0
 797 340 876 261 876 163 c 0
 876 65 797 -14 699 -14 c 0x6f80
 601 -14 522 65 522 163 c 0
 522 261 601 340 699 340 c 0
699 110 m 0
 728 110 752 134 752 163 c 0
 752 192 728 216 699 216 c 0
 670 216 646 192 646 163 c 0
 646 134 670 110 699 110 c 0
404 508 m 0
 404 410 325 331 227 331 c 0x5f80
 129 331 50 410 50 508 c 0
 50 606 129 685 227 685 c 0
 325 685 404 606 404 508 c 0
174 508 m 0
 174 479 198 455 227 455 c 0
 256 455 280 479 280 508 c 0
 280 537 256 561 227 561 c 0
 198 561 174 537 174 508 c 0
EndSplineSet
EndChar

StartChar: ampersand
Encoding: 38 38 10
Width: 791
GlyphClass: 1
Flags: MW
HStem: 3 125<199.5 493 257 493 257 617> 291 123 576 125<234 617 256 617>
VStem: 51 124<472.5 517 472.5 552.5> 493 124<128 290 3 291 3 291>
LayerCount: 2
Fore
SplineSet
256 413 m 2
 742 416 l 1
 742 290 l 1
 617 290 l 1
 617 3 l 1
 256 3 l 2
 143 3 51 95 51 208 c 0
 51 264 73 315 109 352 c 1
 73 389 51 440 51 496 c 0
 51 609 143 701 256 701 c 2
 617 701 l 1
 617 576 l 1
 256 576 l 2
 212 576 175 539 175 495 c 0
 175 450 212 413 256 413 c 2
493 128 m 1
 493 291 l 1
 257 291 l 2
 213 291 176 254 176 209 c 0
 176 165 213 128 257 128 c 2
 493 128 l 1
EndSplineSet
EndChar

StartChar: quotesingle
Encoding: 39 39 11
Width: 225
GlyphClass: 1
Flags: MW
HStem: 502 248<50 175 50 175>
VStem: 50 125<502 750>
LayerCount: 2
Fore
SplineSet
175 502 m 1
 50 502 l 1
 50 750 l 1
 175 750 l 1
 175 502 l 1
EndSplineSet
EndChar

StartChar: parenleft
Encoding: 40 40 12
Width: 400
GlyphClass: 1
Flags: MW
HStem: -161 21G<197 350 197 197> 722 20G<194 350 349 350 349 349>
LayerCount: 2
Fore
SplineSet
350 742 m 1
 349 742 l 1
 260 643 4 292 350 -161 c 1
 197 -161 l 1
 -64 240 79 573 194 742 c 1
 350 742 l 1
EndSplineSet
EndChar

StartChar: parenright
Encoding: 41 41 13
Width: 400
GlyphClass: 1
Flags: MW
HStem: -161 21G<49 202 49 49> 722 20G<50 206 205 206 205 205>
LayerCount: 2
Fore
SplineSet
206 742 m 1
 205 742 l 1
 320 573 463 240 202 -161 c 1
 49 -161 l 1
 395 292 139 643 50 742 c 1
 206 742 l 1
EndSplineSet
EndChar

StartChar: asterisk
Encoding: 42 42 14
Width: 387
GlyphClass: 1
Flags: MW
HStem: 469 21G<139 139 247 247> 722 20G<160 229 229 229>
LayerCount: 2
Fore
SplineSet
233 589 m 1
 232 589 l 1
 301 508 l 1
 247 469 l 1
 193 562 l 1
 139 469 l 1
 85 508 l 1
 154 589 l 1
 49 613 l 1
 70 679 l 1
 169 637 l 1
 169 637 l 1
 160 742 l 1
 229 742 l 1
 225 707 221 672 218 637 c 1
 317 679 l 1
 338 613 l 1
 233 589 l 1
EndSplineSet
EndChar

StartChar: plus
Encoding: 43 43 15
Width: 574
GlyphClass: 1
Flags: MW
HStem: 93 21G<225 350 225 225> 268 125<50 225 50 225 350 525> 548 20G<225 350 350 350>
VStem: 225 125<93 268 93 268 393 568>
LayerCount: 2
Fore
SplineSet
350 393 m 1
 525 393 l 1
 525 268 l 1
 350 268 l 1
 350 93 l 1
 225 93 l 1
 225 268 l 1
 50 268 l 1
 50 393 l 1
 225 393 l 1
 225 568 l 1
 350 568 l 1
 350 393 l 1
EndSplineSet
EndChar

StartChar: comma
Encoding: 44 44 16
Width: 225
GlyphClass: 1
Flags: MW
HStem: -132 250<112 174 112 112>
VStem: 50 124<-7 -7 -7 118 -132 118>
LayerCount: 2
Fore
SplineSet
50 118 m 1
 174 118 l 1
 174 -132 l 1
 112 -132 l 1
 50 -7 l 1
 50 -7 l 1
 50 118 l 1
EndSplineSet
EndChar

StartChar: hyphen
Encoding: 45 45 17
Width: 574
GlyphClass: 1
Flags: MW
HStem: 268 125<50 524 50 524>
LayerCount: 2
Fore
SplineSet
524 268 m 1
 50 268 l 1
 50 393 l 1
 524 393 l 1
 524 268 l 1
EndSplineSet
EndChar

StartChar: period
Encoding: 46 46 18
Width: 225
GlyphClass: 1
Flags: HMW
HStem: -7 125
VStem: 50 125
LayerCount: 2
Fore
SplineSet
175 0 m 1
 50 0 l 1
 50 118 l 1
 175 118 l 1
 175 0 l 1
EndSplineSet
EndChar

StartChar: slash
Encoding: 47 47 19
Width: 428
GlyphClass: 1
Flags: MW
HStem: -15 21G<50 180 50 50> 665 20G<248 378 378 378>
LayerCount: 2
Fore
SplineSet
248 685 m 1
 378 685 l 1
 306 430 l 1
 271 305 l 1
 180 -15 l 1
 50 -15 l 1
 141 305 l 1
 176 430 l 1
 248 685 l 1
EndSplineSet
EndChar

StartChar: zero
Encoding: 48 48 20
Width: 769
GlyphClass: 1
Flags: MW
HStem: 1 123<213.5 492 276 492> 575 125<248 492 276 492>
VStem: 50 124<227 473> 594 124<226 227 227 473 473 474>
LayerCount: 2
Fore
SplineSet
492 575 m 2
 276 575 l 2
 220 575 174 529 174 473 c 2
 174 226 l 2
 174 170 220 124 276 124 c 2
 492 124 l 2
 548 124 594 170 594 226 c 2
 594 473 l 2
 594 529 548 575 492 575 c 2
276 700 m 2
 492 700 l 2
 617 700 718 599 718 474 c 2
 718 227 l 2
 718 102 617 1 492 1 c 2
 276 1 l 2
 151 1 50 102 50 227 c 2
 50 474 l 2
 50 599 151 700 276 700 c 2
EndSplineSet
EndChar

StartChar: one
Encoding: 49 49 21
Width: 338
GlyphClass: 1
Flags: MW
HStem: -9 21G<165 290 165 165> 669 20G<52 67 67 79 67 67 67 67 79 79>
VStem: 165 125<-9 467 -9 480 -9 480>
LayerCount: 2
Fore
SplineSet
288 465 m 1
 290 467 l 1
 290 467 l 1
 290 -9 l 1
 165 -9 l 1
 165 480 l 1
 159 524 124 559 80 565 c 1
 68 565 l 1
 52 565 l 1
 52 689 l 1
 67 689 l 1
 67 689 l 1
 67 689 l 1
 79 689 l 1
 79 688 l 1
 109 686 138 678 164 665 c 1
 164 665 l 1
 208 643 244 607 265 563 c 0
 272 548 278 532 282 516 c 0
 286 500 288 483 288 465 c 1
EndSplineSet
EndChar

StartChar: two
Encoding: 50 50 22
Width: 800
GlyphClass: 1
Flags: MW
HStem: -2 126 287 124<248 544 248 548 544 547 547 548 548 550> 574 125<51 544 51 544>
VStem: 49 126<125 125 125 204 204 206 125 218.5> 625 125<478.5 514.5>
LayerCount: 2
Fore
SplineSet
175 125 m 1
 747 123 l 1
 747 -2 l 1
 254 -2 l 1
 254 -2 l 1
 49 -2 l 1
 49 204 l 2
 49 233 55 260 66 285 c 0
 96 357 166 408 248 411 c 2
 548 411 l 1
 551 411 l 1
 593 415 625 450 625 492 c 0
 625 537 589 574 544 574 c 2
 51 574 l 1
 51 699 l 1
 544 699 l 2
 658 699 750 607 750 493 c 0
 750 464 744 437 733 412 c 0
 723 389 709 368 691 350 c 0
 655 313 605 289 550 287 c 2
 547 287 l 1
 544 287 l 1
 248 287 l 1
 207 283 175 248 175 206 c 2
 175 125 l 1
EndSplineSet
EndChar

StartChar: three
Encoding: 51 51 23
Width: 800
GlyphClass: 1
Flags: MW
HStem: -6 125<50 543 50 543> 283 125<176 545 176 545 545 548> 572 125<51 544 51 544>
VStem: 626 123<468 488>
CounterMasks: 1 e0
LayerCount: 2
Fore
SplineSet
750 491 m 1
 749 488 l 1
 749 432 727 381 691 344 c 1
 727 307 749 256 749 200 c 0
 749 86 657 -6 543 -6 c 2
 50 -6 l 1
 50 119 l 1
 543 119 l 2
 588 119 625 156 625 201 c 0
 625 245 591 281 548 283 c 2
 545 283 l 1
 176 283 l 1
 176 408 l 1
 545 408 l 1
 548 408 l 2
 591 410 626 446 626 490 c 0
 626 535 589 572 544 572 c 2
 51 572 l 1
 51 697 l 1
 544 697 l 2
 658 697 750 605 750 491 c 1
EndSplineSet
EndChar

StartChar: four
Encoding: 52 52 24
Width: 800
GlyphClass: 1
Flags: MW
HStem: 0 21G<624 749 624 624> 288 124<238 625 256 624> 680 20G<49 174 174 174 625 749 749 749>
VStem: 49 125<494 700> 625 124<412 700 0 700>
LayerCount: 2
Fore
SplineSet
625 700 m 1
 749 700 l 1
 749 0 l 1
 624 0 l 1
 624 288 l 1
 255 288 l 2
 221 288 189 296 161 311 c 0
 94 345 49 414 49 494 c 2
 49 700 l 1
 174 700 l 1
 174 494 l 2
 174 449 211 412 256 412 c 2
 625 412 l 1
 625 700 l 1
EndSplineSet
EndChar

StartChar: five
Encoding: 53 53 25
Width: 800
GlyphClass: 1
Flags: MW
HStem: -3 125<50 543 50 543> 285 125<175 544 544 551 175 552> 572 125<175 691 175 175>
VStem: 50 125<410 572 410 697> 624 125<181.5 217.5 146 225>
LayerCount: 2
Fore
SplineSet
733 285 m 1
 732 284 l 1
 743 259 749 232 749 203 c 0
 749 89 657 -3 543 -3 c 2
 50 -3 l 1
 50 122 l 1
 543 122 l 2
 588 122 624 159 624 204 c 0
 624 246 593 281 552 285 c 1
 50 285 l 1
 50 697 l 1
 691 697 l 1
 691 572 l 1
 175 572 l 1
 175 410 l 1
 544 410 l 1
 551 410 l 2
 633 408 703 357 733 285 c 1
EndSplineSet
EndChar

StartChar: six
Encoding: 54 54 26
Width: 800
GlyphClass: 1
Flags: MW
HStem: 3 125<212 542 255 542> 292 121<251 252 251 252 252 255 255 542 542 545 545 546> 577 125<232.5 690 255 690>
VStem: 49 124<210 232 397 495> 623 125<187.5 232>
CounterMasks: 1 e0
LayerCount: 2
Fore
SplineSet
691 350 m 1
 690 353 l 1
 726 316 748 265 748 209 c 0
 748 95 656 3 542 3 c 2
 255 3 l 2
 169 3 96 55 65 129 c 0
 55 154 49 181 49 210 c 2
 49 497 l 2
 49 549 69 596 101 632 c 0
 118 651 138 667 161 679 c 0
 189 694 221 702 255 702 c 2
 690 702 l 1
 690 577 l 1
 255 577 l 2
 210 577 173 540 173 495 c 2
 173 397 l 1
 197 407 224 413 251 413 c 2
 252 413 l 1
 255 413 l 1
 542 413 l 1
 545 413 l 1
 546 413 l 2
 603 412 654 388 691 350 c 1
 691 350 l 1
 691 350 l 1
542 128 m 1
 541 128 l 1
 586 128 623 165 623 210 c 0
 623 254 589 290 546 292 c 2
 545 292 l 1
 542 292 l 1
 255 292 l 1
 252 292 l 1
 251 292 l 2
 208 290 173 254 173 210 c 0
 173 165 210 128 255 128 c 2
 542 128 l 1
EndSplineSet
EndChar

StartChar: seven
Encoding: 55 55 27
Width: 677
GlyphClass: 1
Flags: MW
HStem: 1 21G<502 627 502 502> 575 125<50 405 405 417 50 405>
VStem: 502 125<1 478 1 490 1 490>
LayerCount: 2
Fore
SplineSet
604 575 m 1
 604 576 l 1
 619 546 627 513 627 478 c 2
 627 1 l 1
 502 1 l 1
 502 490 l 1
 496 534 461 569 417 575 c 1
 50 575 l 1
 50 700 l 1
 405 700 l 2
 440 700 473 692 503 677 c 0
 547 655 583 619 604 575 c 1
EndSplineSet
EndChar

StartChar: eight
Encoding: 56 56 28
Width: 800
GlyphClass: 1
Flags: MW
HStem: -1 125<215 545 258 545> 287 123<253 256 250 253 256 540 540 543> 573 128<253 256 256 543 248 256>
VStem: 51 125 623 128<182.5 227>
LayerCount: 2
Fore
SplineSet
691 350 m 1
 693 349 l 1
 693 349 l 1
 729 312 751 261 751 205 c 0
 751 91 659 -1 545 -1 c 2
 258 -1 l 2
 172 -1 99 51 68 125 c 0
 58 150 52 177 52 206 c 0
 52 262 74 313 110 350 c 1
 110 350 l 1
 92 368 77 389 67 413 c 0
 57 438 51 465 51 494 c 0
 51 550 73 601 109 638 c 0
 128 658 150 674 175 685 c 0
 199 695 226 701 253 701 c 2
 256 701 l 1
 543 701 l 1
 546 701 l 2
 603 700 654 676 691 638 c 0
 727 601 749 550 749 494 c 0
 749 438 727 387 691 350 c 1
545 124 m 1
 541 123 l 1
 586 123 623 160 623 205 c 0
 623 249 589 285 546 287 c 2
 543 287 l 1
 256 287 l 1
 253 287 l 2
 210 285 176 249 176 206 c 0
 176 161 213 124 258 124 c 2
 545 124 l 1
543 410 m 1
 540 410 l 1
 584 411 620 447 620 491 c 0
 620 535 586 571 543 573 c 2
 248 573 l 2
 205 571 170 535 170 491 c 0
 170 447 206 411 250 410 c 2
 253 410 l 1
 540 410 l 1
 543 410 l 1
EndSplineSet
EndChar

StartChar: nine
Encoding: 57 57 29
Width: 800
GlyphClass: 1
Flags: MW
HStem: -2 125<109 544 109 544> 287 124<253 254 253 254 254 257 257 544 544 547 547 548> 575 125<256 257 257 543 543 544>
VStem: 50 125<471 515.5 471 551> 626 124<205 206 206 303 303 303 471 493>
CounterMasks: 1 e0
LayerCount: 2
Fore
SplineSet
733 574 m 1
 734 574 l 1
 744 549 750 522 750 493 c 2
 750 206 l 2
 750 146 725 92 684 54 c 0
 670 41 655 30 638 21 c 0
 610 6 578 -2 544 -2 c 2
 109 -2 l 1
 109 123 l 1
 544 123 l 2
 589 123 626 160 626 205 c 2
 626 303 l 1
 602 293 575 287 548 287 c 2
 547 287 l 1
 544 287 l 1
 257 287 l 1
 254 287 l 1
 253 287 l 2
 196 288 145 312 108 350 c 1
 108 350 l 1
 72 387 50 438 50 494 c 0
 50 608 142 700 256 700 c 2
 543 700 l 2
 629 700 702 648 733 574 c 1
257 575 m 2
 212 575 175 538 175 493 c 0
 175 449 210 413 253 411 c 2
 254 411 l 1
 257 411 l 1
 544 411 l 1
 547 411 l 1
 548 411 l 2
 591 413 626 449 626 493 c 0
 626 538 589 575 544 575 c 2
 257 575 l 2
EndSplineSet
EndChar

StartChar: colon
Encoding: 58 58 30
Width: 225
GlyphClass: 1
Flags: MW
HStem: -7 125<50 175 50 175> 375 125<50 175 50 175>
VStem: 50 125<-7 118 375 500>
LayerCount: 2
Fore
SplineSet
175 -7 m 1
 50 -7 l 1
 50 118 l 1
 175 118 l 1
 175 -7 l 1
175 375 m 1
 50 375 l 1
 50 500 l 1
 175 500 l 1
 175 375 l 1
EndSplineSet
EndChar

StartChar: semicolon
Encoding: 59 59 31
Width: 225
GlyphClass: 1
Flags: MW
HStem: -132 250<112 174 112 112> 375 125<49 174 49 174>
VStem: 49 125<-132 118 375 500>
LayerCount: 2
Fore
SplineSet
50 -7 m 1
 49 118 l 1
 174 118 l 1
 174 -132 l 1
 112 -132 l 1
 50 -7 l 1
 50 -7 l 1
174 375 m 1
 49 375 l 1
 49 500 l 1
 174 500 l 1
 174 375 l 1
EndSplineSet
EndChar

StartChar: less
Encoding: 60 60 32
Width: 574
GlyphClass: 1
Flags: MW
HStem: 100 21G<525 525> 549 20G<525 525>
LayerCount: 2
Fore
SplineSet
414 397 m 1
 350 375 l 1
 237 335 l 1
 350 295 l 1
 414 272 l 1
 525 233 l 1
 525 100 l 1
 350 162 l 1
 225 206 l 1
 50 268 l 1
 50 401 l 1
 225 463 l 1
 350 507 l 1
 525 569 l 1
 525 436 l 1
 414 397 l 1
EndSplineSet
EndChar

StartChar: equal
Encoding: 61 61 33
Width: 574
GlyphClass: 1
Flags: MW
HStem: 156 125<50 524 50 524> 367 125<50 524 50 524>
LayerCount: 2
Fore
SplineSet
524 367 m 1
 50 367 l 1
 50 492 l 1
 524 492 l 1
 524 367 l 1
524 156 m 1
 50 156 l 1
 50 281 l 1
 524 281 l 1
 524 156 l 1
EndSplineSet
EndChar

StartChar: greater
Encoding: 62 62 34
Width: 574
GlyphClass: 1
Flags: MW
HStem: 98 21G<50 50> 548 20G<50 50>
LayerCount: 2
Fore
SplineSet
350 462 m 1
 525 399 l 1
 525 266 l 1
 350 204 l 1
 225 160 l 1
 50 98 l 1
 50 231 l 1
 161 270 l 1
 225 293 l 1
 338 333 l 1
 225 373 l 1
 161 396 l 1
 50 435 l 1
 50 568 l 1
 225 506 l 1
 350 462 l 1
EndSplineSet
EndChar

StartChar: question
Encoding: 63 63 35
Width: 762
GlyphClass: 1
Flags: MW
HStem: -7 125<318 443 318 443> 170 202<318 443 318 488> 248 124<443 488 443 443> 470 223<50 488> 568 125<246 488 273 488>
VStem: 318 125<-7 118 170 248> 586 125<443 488.5 409.5 497>
LayerCount: 2
Fore
SplineSet
443 -7 m 1xce
 318 -7 l 1
 318 118 l 1
 443 118 l 1
 443 -7 l 1xce
688 568 m 1
 688 570 l 1
 703 540 711 506 711 471 c 0
 711 348 611 248 488 248 c 2
 443 248 l 1xae
 443 170 l 1
 318 170 l 1
 318 372 l 1
 488 372 l 2
 542 372 586 416 586 470 c 0xd6
 586 524 542 568 488 568 c 2
 273 568 l 2xce
 219 568 175 524 175 470 c 1
 50 470 l 1xd6
 50 505 58 538 73 568 c 0
 109 642 185 693 273 693 c 2
 488 693 l 2
 576 693 652 642 688 568 c 1
EndSplineSet
EndChar

StartChar: at
Encoding: 64 64 36
Width: 800
GlyphClass: 1
Flags: MW
HStem: -7 125<303.5 750 400 750> 244 124<372.5 625 500 625 500 749 400 625 400 625> 244 200<372.5 400 400 500 400 749 400 400 400 400> 568 125<338 400 303.5 625> 674 20G<749 749>
VStem: 50 125<281 405 281 439.5> 300 200<368 371.5> 625 124<368 568 568 568>
LayerCount: 2
Fore
SplineSet
400 693 m 2xd7
 749 694 l 1
 749 244 l 1
 400 244 l 1
 400 244 l 1
 400 244 l 1
 345 244 300 289 300 344 c 0
 300 399 345 444 400 444 c 1
 400 444 l 1
 400 444 l 1
 500 444 l 1xaf
 500 368 l 1
 625 368 l 1
 625 568 l 1
 400 568 l 2
 276 568 175 467 175 343 c 0
 175 219 276 118 400 118 c 2
 750 118 l 1
 750 -7 l 1
 400 -7 l 2
 207 -7 50 150 50 343 c 0
 50 536 207 693 400 693 c 2xd7
EndSplineSet
EndChar

StartChar: A
Encoding: 65 65 37
AltUni2: 0000c5.ffffffff.0 0000c4.ffffffff.0 0000c3.ffffffff.0 0000c2.ffffffff.0 0000c1.ffffffff.0 0000c0.ffffffff.0 0000c5.ffffffff.0 0000c4.ffffffff.0 0000c3.ffffffff.0 0000c2.ffffffff.0 0000c1.ffffffff.0 0000c0.ffffffff.0
Width: 735
GlyphClass: 1
Flags: HMW
HStem: 0 21G<11 151 11 11 585 725 585 585> 680 20G<368 368>
LayerCount: 2
Fore
SplineSet
661 125 m 1
 725 0 l 1
 585 0 l 1
 521 125 l 1
 368 425 l 1
 215 125 l 1
 151 0 l 1
 11 0 l 1
 75 125 l 1
 368 700 l 1
 661 125 l 1
EndSplineSet
EndChar

StartChar: B
Encoding: 66 66 38
Width: 775
GlyphClass: 1
Flags: HMWO
HStem: 0 125<175 527 175 527> 322 125<293 492 492 509.489 293 527 293 492> 575 125<175 491 491 492 175 175>
VStem: 50 125<125 284 484 575 125 484 125 284> 556 124<493.5 528.5> 625 125<197 251>
LayerCount: 2
Fore
SplineSet
50 284 m 1
 175 284 l 1xf0
 175 125 l 1
 527 125 l 1
 527 126 l 1
 581 126 625 170 625 224 c 0
 625 278 580.974609375 322 527 322 c 2
 293 322 l 1
 293 447 l 1
 492 447 l 2
 526.978515625 447 556 476 556 511 c 0xf8
 556 546 526.8671875 575 492 575 c 2
 175 575 l 1
 175 484 l 1
 50 484 l 1
 50 700 l 1
 491 700 l 2
 594.966125349 700 680 615 680 511 c 0
 680 473 669 438 650 409 c 1
 710 369 750 301 750 223 c 0xf4
 750 100 650 0 527 0 c 2
 50 0 l 1
 50 0 l 1
 50 0 l 1
 50 284 l 1
EndSplineSet
EndChar

StartChar: C
Encoding: 67 67 39
AltUni2: 0000c7.ffffffff.0 0000c7.ffffffff.0
Width: 790
GlyphClass: 1
Flags: MW
HStem: 0 125<293.5 740 390 740> 575 125<328 740 390 740>
VStem: 40 125<288 412 288 446.5>
LayerCount: 2
Fore
SplineSet
390 575 m 2
 266 575 165 474 165 350 c 0
 165 226 266 125 390 125 c 2
 740 125 l 1
 740 0 l 1
 390 0 l 2
 197 0 40 157 40 350 c 0
 40 543 197 700 390 700 c 2
 740 700 l 1
 740 575 l 1
 390 575 l 2
EndSplineSet
EndChar

StartChar: D
Encoding: 68 68 40
Width: 800
GlyphClass: 1
Flags: MW
HStem: 0 124<174 399 399 400> 574 125<174 495.5> 680 20G<50 50>
VStem: 50 124<124 276 124 276 124 276 438 574> 624 125<307 411>
LayerCount: 2
Fore
SplineSet
174 276 m 1xd8
 174 124 l 1
 399 124 l 2
 523 124 624 225 624 349 c 0
 624 473 523 574 399 574 c 2
 174 574 l 1xd8
 174 438 l 1
 50 438 l 1
 50 700 l 1xb8
 399 699 l 2
 592 699 749 543 749 350 c 0
 749 264 718 185 666 124 c 0
 660 117 653 110 646 103 c 0
 583 39 496 0 400 0 c 2
 50 0 l 1
 50 276 l 1
 174 276 l 1xd8
EndSplineSet
EndChar

StartChar: E
Encoding: 69 69 41
AltUni2: 0000cb.ffffffff.0 0000ca.ffffffff.0 0000c9.ffffffff.0 0000c8.ffffffff.0 0000cb.ffffffff.0 0000ca.ffffffff.0 0000c9.ffffffff.0 0000c8.ffffffff.0
Width: 800
GlyphClass: 1
Flags: MW
HStem: 0 125<187 750 239 750> 321 125<175 625 175 625> 575 125<221.5 750 239 750>
VStem: 51 124<189 321 446 511>
LayerCount: 2
Fore
SplineSet
239 575 m 2
 204 575 175 546 175 511 c 2
 175 446 l 1
 625 446 l 1
 625 321 l 1
 175 321 l 1
 175 189 l 2
 175 154 204 125 239 125 c 2
 750 125 l 1
 750 0 l 1
 239 0 l 2
 135 0 51 85 51 189 c 2
 51 511 l 2
 51 615 135 700 239 700 c 2
 750 700 l 1
 750 575 l 1
 239 575 l 2
EndSplineSet
EndChar

StartChar: F
Encoding: 70 70 42
Width: 800
GlyphClass: 1
Flags: MW
HStem: 0 21G<51 175 51 51> 321 125<176 626 176 626 175 626> 575 125<239 240 240 751>
VStem: 51 124<0 321 0 511>
LayerCount: 2
Fore
SplineSet
239 700 m 2
 751 700 l 1
 751 575 l 1
 240 575 l 2
 205 575 176 546 176 511 c 2
 176 446 l 1
 626 446 l 1
 626 321 l 1
 175 321 l 1
 175 0 l 1
 51 0 l 1
 51 511 l 2
 51 615 135 700 239 700 c 2
EndSplineSet
EndChar

StartChar: G
Encoding: 71 71 43
Width: 800
GlyphClass: 1
Flags: MW
HStem: 0 125<303.5 625 400 625 400 750> 259 125<452 625 452 750> 575 125<338 750 400 750>
VStem: 50 125<288 412 288 446.5> 625 125<125 259 259 259>
LayerCount: 2
Fore
SplineSet
400 575 m 2
 276 575 175 474 175 350 c 0
 175 226 276 125 400 125 c 2
 625 125 l 1
 625 259 l 1
 452 259 l 1
 452 384 l 1
 750 384 l 1
 750 0 l 1
 400 0 l 2
 207 0 50 157 50 350 c 0
 50 543 207 700 400 700 c 2
 750 700 l 1
 750 575 l 1
 400 575 l 2
EndSplineSet
EndChar

StartChar: H
Encoding: 72 72 44
Width: 800
GlyphClass: 1
Flags: MW
HStem: 0 21G<50 175 50 50 625 750 625 625> 321 125<175 625 175 625> 680 20G<50 175 175 175 625 750 750 750>
VStem: 50 125<0 321 446 700> 625 125<0 321 321 321 446 700 0 700>
LayerCount: 2
Fore
SplineSet
625 700 m 1
 750 700 l 1
 750 0 l 1
 625 0 l 1
 625 321 l 1
 175 321 l 1
 175 0 l 1
 50 0 l 1
 50 700 l 1
 175 700 l 1
 175 446 l 1
 625 446 l 1
 625 700 l 1
EndSplineSet
EndChar

StartChar: I
Encoding: 73 73 45
AltUni2: 0000cf.ffffffff.0 0000ce.ffffffff.0 0000cd.ffffffff.0 0000cc.ffffffff.0 0000cf.ffffffff.0 0000ce.ffffffff.0 0000cd.ffffffff.0 0000cc.ffffffff.0
Width: 225
GlyphClass: 1
Flags: MW
HStem: 0 21G<50 175 50 50> 680 20G<50 175 175 175>
VStem: 50 125<0 700>
LayerCount: 2
Fore
SplineSet
175 0 m 1
 50 0 l 1
 50 700 l 1
 175 700 l 1
 175 0 l 1
EndSplineSet
EndChar

StartChar: J
Encoding: 74 74 46
Width: 800
GlyphClass: 1
Flags: MW
HStem: 1 124<187 561 239 561> 680 20G<625 750 750 750>
VStem: 50 125<189 320> 625 125<189 700>
LayerCount: 2
Fore
SplineSet
625 700 m 1
 750 700 l 1
 750 189 l 2
 750 85 665 1 561 1 c 2
 239 1 l 2
 135 1 50 85 50 189 c 2
 50 320 l 1
 175 320 l 1
 175 189 l 2
 175 154 204 125 239 125 c 2
 561 125 l 2
 596 125 625 154 625 189 c 2
 625 700 l 1
EndSplineSet
EndChar

StartChar: K
Encoding: 75 75 47
Width: 800
GlyphClass: 1
Flags: MW
HStem: 0 21G<49 174 49 49 593 747 593 593> 680 20G<49 174 174 174 565 750 750 750>
VStem: 49 125<0 173 342 700>
LayerCount: 2
Fore
SplineSet
750 700 m 1
 444 419 l 1
 747 0 l 1
 593 0 l 1
 351 334 l 1
 174 173 l 1
 174 0 l 1
 49 0 l 1
 49 700 l 1
 174 700 l 1
 174 342 l 1
 277 436 l 1
 370 521 l 1
 565 700 l 1
 750 700 l 1
EndSplineSet
EndChar

StartChar: L
Encoding: 76 76 48
Width: 677
GlyphClass: 1
Flags: MW
HStem: -1 125<272 627> 679 20G<50 175 175 175>
VStem: 50 125<222 699 210 699>
LayerCount: 2
Fore
SplineSet
260 125 m 1
 627 124 l 1
 627 -1 l 1
 272 -1 l 2
 237 -1 204 7 174 22 c 0
 130 44 94 80 73 124 c 0
 58 154 50 187 50 222 c 2
 50 699 l 1
 175 699 l 1
 175 210 l 1
 181 166 216 131 260 125 c 1
EndSplineSet
EndChar

StartChar: M
Encoding: 77 77 49
Width: 800
GlyphClass: 1
Flags: MW
HStem: 0 21G<50 175 50 50 625 750 625 625> 680 20G<50 50 750 750>
VStem: 50 125<0 446> 625 125<0 446 446 446 604 604>
LayerCount: 2
Fore
SplineSet
625 604 m 1
 750 700 l 1
 750 0 l 1
 625 0 l 1
 625 446 l 1
 502 352 l 1
 400 273 l 1
 298 352 l 1
 175 446 l 1
 175 0 l 1
 50 0 l 1
 50 700 l 1
 175 604 l 1
 400 431 l 1
 625 604 l 1
EndSplineSet
EndChar

StartChar: N
Encoding: 78 78 50
AltUni2: 0000d1.ffffffff.0 0000d1.ffffffff.0
Width: 800
GlyphClass: 1
Flags: MW
HStem: -1 21G<50 175 50 50 750 750> 680 20G<625 625>
VStem: 50 125<-1 442> 625 125<95 95 254 699 -1 700 -1 700>
LayerCount: 2
Fore
SplineSet
625 700 m 1
 750 699 l 1
 750 -1 l 1
 625 95 l 1
 175 442 l 1
 175 -1 l 1
 50 -1 l 1
 50 697 l 1
 175 601 l 1
 625 254 l 1
 625 700 l 1
EndSplineSet
EndChar

StartChar: O
Encoding: 79 79 51
AltUni2: 0000d8.ffffffff.0 0000d6.ffffffff.0 0000d5.ffffffff.0 0000d4.ffffffff.0 0000d3.ffffffff.0 0000d2.ffffffff.0 0000d8.ffffffff.0 0000d6.ffffffff.0 0000d5.ffffffff.0 0000d4.ffffffff.0 0000d3.ffffffff.0 0000d2.ffffffff.0
Width: 750
GlyphClass: 1
Flags: MW
HStem: 0 125 575 125
VStem: 25 125<304.191 412 304.191 446.499> 600 125<304.944 412>
LayerCount: 2
Fore
SplineSet
469.1640625 12.86328125 m 1
 616.573242188 54.0830078125 725 189.609375 725 349.999023438 c 0
 725 542.999023438 568 699.999023438 375 699.999023438 c 0
 182 699.999023438 25 542.999023438 25 349.999023438 c 0
 25 188.782226562 134.548828125 52.6845703125 283.120117188 12.2314453125 c 1
 283.120117188 12.2314453125 284.203125 144.161132812 283.9453125 144.275390625 c 0
 205.134765625 179.321289062 150 258.3828125 150 350 c 0
 150 474 251 575 375 575 c 0
 499 575 600 474 600 350 c 0
 600 259.888671875 546.662109375 181.923828125 469.920898438 146.0390625 c 1
 469.1640625 12.86328125 l 1
469.920898438 146.0390625 m 1024
EndSplineSet
EndChar

StartChar: P
Encoding: 80 80 52
Width: 730
GlyphClass: 1
Flags: HMW
HStem: 0 21G<51 176 51 51> 322 123<176 493 493 497.5 176 511 176 493> 574 126<176 492 492 493 176 176>
VStem: 51 125<0 322 0 445 445 574> 557 124<497.5 521.5>
LayerCount: 2
Fore
SplineSet
51 445 m 1
 51 0 l 1
 176 0 l 1
 176 322 l 1
 511 322 l 1
 511 323 l 1
 517 323 l 2
 536 325 554 330 571 338 c 0
 636 368 681 434 681 510 c 0
 681 562 660 609 626 643 c 1
 625 645 l 1
 591 679 544 700 492 700 c 2
 51 700 l 1
 51 700 l 1
 51 700 l 1
 51 574.154296875 l 1
 493 574 l 2
 514.999751273 573.992320152 530 564 538 556 c 0
 545 549 557 533 557 510 c 0
 557 485 542 462 519 452 c 1
 519 451 l 1
 511 447 502 445 493 445 c 2
 51 445 l 1
EndSplineSet
EndChar

StartChar: Q
Encoding: 81 81 53
Width: 800
GlyphClass: 1
Flags: MW
HStem: 0 125<399 399 399 400 400 403 403 405 667 749> 575 125<337 461>
VStem: 50 124<288 412 288 446.5> 624 126<350 412>
LayerCount: 2
Fore
SplineSet
750 350 m 1
 749 350 l 1
 749 264 718 186 667 125 c 1
 749 125 l 1
 749 0 l 1
 403 0 l 1
 400 0 l 2
 207 0 50 157 50 350 c 0
 50 543 207 700 400 700 c 0
 593 700 750 543 750 350 c 1
405 125 m 2
 526 128 624 228 624 350 c 0
 624 474 523 575 399 575 c 0
 275 575 174 474 174 350 c 0
 174 226 275 125 399 125 c 1
 399 125 l 1
 405 125 l 2
EndSplineSet
EndChar

StartChar: R
Encoding: 82 82 54
Width: 730
GlyphClass: 1
Flags: HMW
HStem: -1 21G<49 174 49 49 539 539 539 679> 321 124 574 125<174 491 174 174>
VStem: 49 125<-1 321 321 574> 555 124<497.5 521.5>
LayerCount: 2
Fore
SplineSet
174 321 m 1
 174 -1 l 1
 49 -1 l 1
 49 699 l 1
 491 699 l 2
 543 699 590 678 624 644 c 0
 658 609 679 562 679 510 c 0
 679 434 634 368 569 338 c 0
 552 330 534 325 515 323 c 1
 515 323 l 1
 615 124 l 1
 679 -1 l 1
 539 -1 l 1
 475 124 l 1
 408 255 l 1
 405 261 l 2
 383 297 319 321 319 321 c 1
 319 321 l 1
 319 321 l 1
 319 445.39453125 l 1
 491 446 l 2
 500 446 509 448 517 452 c 0
 540 462 555 485 555 510 c 0
 555 533 543 549 536 556 c 0
 528 564 513 574 491 574 c 2
 174 574 l 1
 174 321 l 1
EndSplineSet
EndChar

StartChar: S
Encoding: 83 83 55
Width: 762
GlyphClass: 1
Flags: HMW
HStem: 0 125<211 491 272 491> 0 221<51 272 51 491> 317 125<213.5 491 239 491> 506 194<175 523 239 587> 574 126<221.5 523 239 523>
VStem: 51 125<194.5 221 194.5 221> 588 124<194.5 247.5>
LayerCount: 2
Fore
SplineSet
712 527 m 1x76
 587 526 l 1xb6
 587 530 l 2
 587 565 558 574 523 574 c 2
 239 574 l 2xae
 204 574 175 545 175 510 c 2
 175 506 l 2
 175 471 204 442 239 442 c 2
 491 442 l 2
 556 442 614 414 654 370 c 0
 657 367 659 364 662 361 c 0
 693 323 712 274 712 221 c 0
 712 99 613 0 491 0 c 2
 272 0 l 2
 150 0 51 79 51 201 c 1
 176 201 l 1x76
 176 148 219 125 272 125 c 2
 491 125 l 2xb6
 544 125 588 168 588 221 c 0
 588 274 544 317 491 317 c 2
 239 317 l 2
 188 317 142 337 108 370 c 0
 99 379 91 389 84 400 c 0
 63 430 51 467 51 507 c 2
 51 511 l 2
 51 615 135 700 239 700 c 2
 523 700 l 2
 627 700 712 635 712 531 c 2
 712 527 l 1x76
EndSplineSet
EndChar

StartChar: T
Encoding: 84 84 56
Width: 800
GlyphClass: 1
Flags: MW
HStem: -1 21G<337 462 337 337> 574 125<50 337 50 749 462 749 462 462>
VStem: 337 125<-1 574 -1 574>
LayerCount: 2
Fore
SplineSet
50 699 m 1
 749 699 l 1
 749 574 l 1
 462 574 l 1
 462 -1 l 1
 337 -1 l 1
 337 574 l 1
 50 574 l 1
 50 699 l 1
EndSplineSet
EndChar

StartChar: U
Encoding: 85 85 57
AltUni2: 0000dc.ffffffff.0 0000db.ffffffff.0 0000da.ffffffff.0 0000d9.ffffffff.0 0000dc.ffffffff.0 0000db.ffffffff.0 0000da.ffffffff.0 0000d9.ffffffff.0
Width: 800
GlyphClass: 1
Flags: MW
HStem: 0 125<338 462 338 496.5> 680 20G<50 175 175 175 625 750 750 750>
VStem: 50 125<350 700> 625 125<350 700>
LayerCount: 2
Fore
SplineSet
625 700 m 1
 750 700 l 1
 750 350 l 2
 750 157 593 0 400 0 c 0
 207 0 50 157 50 350 c 2
 50 700 l 1
 175 700 l 1
 175 350 l 2
 175 226 276 125 400 125 c 0
 524 125 625 226 625 350 c 2
 625 700 l 1
EndSplineSet
EndChar

StartChar: V
Encoding: 86 86 58
Width: 735
GlyphClass: 1
Flags: MW
HStem: 0 21G<367 367> 680 20G<10 150 150 150 584 724 724 724>
LayerCount: 2
Fore
SplineSet
584 700 m 1
 724 700 l 1
 660 575 l 1
 367 0 l 1
 74 575 l 1
 10 700 l 1
 150 700 l 1
 214 575 l 1
 367 275 l 1
 520 575 l 1
 584 700 l 1
EndSplineSet
EndChar

StartChar: W
Encoding: 87 87 59
Width: 978
GlyphClass: 1
Flags: HMW
HStem: 0 21G<719 719 719 719 719 719> 680 20G<50 180 180 180 798 928 928 928>
LayerCount: 2
Fore
SplineSet
898 700 m 1
 764 151 l 1
 764 151 l 1
 719 0 l 1
 719 0 l 1
 719 0 l 1
 627 128 l 1
 627 128 l 1
 488 319 l 1
 350 128 l 1
 258 1 l 1
 258 1 l 1
 258 1 l 1
 213 151 l 1
 80 700 l 1
 210 700 l 1
 306 278 l 1
 306 278 l 1
 306 278 l 1
 412 425 l 1
 432 453 l 1
 489 531 l 1
 546 453 l 1
 566 425 l 1
 672 278 l 1
 768 700 l 1
 898 700 l 1
EndSplineSet
EndChar

StartChar: X
Encoding: 88 88 60
Width: 750
GlyphClass: 1
Flags: MW
HStem: -3 21G<25 25 725 725> 679 20G<26 184 184 184 568 725 725 727 727 727>
LayerCount: 2
Fore
SplineSet
27 -1 m 1
 25 -3 l 1
 25 -1 l 1
 27 -1 l 1
725 -1 m 1
 725 -3 l 1
 724 -1 l 1
 725 -1 l 1
725 699 m 1
 727 699 l 1
 456 348 l 1
 726 -1 l 1
 568 -1 l 1
 377 246 l 1
 186 -1 l 1
 28 -1 l 1
 297 348 l 1
 26 699 l 1
 184 699 l 1
 376 450 l 1
 568 699 l 1
 725 699 l 1
EndSplineSet
EndChar

StartChar: Y
Encoding: 89 89 61
AltUni2: 0000dd.ffffffff.0 0000dd.ffffffff.0
Width: 721
GlyphClass: 1
Flags: MW
HStem: -20 20G<10 12 12 12 709 710 710 710> -2 21G<10 10 710 710> 681 20G<11 169 169 169 553 710 710 710 710 710>
VStem: 299 125<1 329 329 329>
LayerCount: 2
Fore
SplineSet
553 701 m 1x70
 710 701 l 1
 710 701 l 1
 439 350 l 1
 439 350 l 1
 424 331 l 1
 424 1 l 1
 299 1 l 1
 299 329 l 1
 282 350 l 1
 282 350 l 1
 11 701 l 1
 169 701 l 1
 361 452 l 1
 553 701 l 1x70
12 0 m 1xb0
 10 -2 l 1
 10 0 l 1
 12 0 l 1xb0
710 0 m 1
 710 -2 l 1
 709 0 l 1
 710 0 l 1
EndSplineSet
EndChar

StartChar: Z
Encoding: 90 90 62
Width: 800
GlyphClass: 1
Flags: MW
HStem: 0 21G<53 211 53 53> 1 125<54 150 306 753 150 212> 575 125<52 497 52 593 653 653>
LayerCount: 2
Fore
SplineSet
306 126 m 1x60
 753 126 l 1
 753 1 l 1
 212 1 l 1x60
 211 0 l 1
 53 0 l 1xa0
 54 1 l 1
 150 126 l 1
 322 349 l 1
 401 451 l 1
 497 575 l 1
 52 575 l 1
 52 700 l 1
 593 700 l 1
 593 700 l 1
 750 700 l 1
 750 700 l 1
 653 575 l 1
 479 349 l 1
 400 247 l 1
 306 126 l 1x60
EndSplineSet
EndChar

StartChar: bracketleft
Encoding: 91 91 63
Width: 352
GlyphClass: 1
Flags: MW
HStem: -159 125<174 302 174 302 50 302> 616 125<174 302 174 174>
VStem: 50 124<-34 616 -34 741>
LayerCount: 2
Fore
SplineSet
302 616 m 1
 174 616 l 1
 174 -34 l 1
 302 -34 l 1
 302 -159 l 1
 50 -159 l 1
 50 741 l 1
 302 741 l 1
 302 616 l 1
EndSplineSet
EndChar

StartChar: backslash
Encoding: 92 92 64
Width: 428
GlyphClass: 1
Flags: MW
HStem: -15 21G<248 378 248 248> 665 20G<50 180 180 180>
LayerCount: 2
Fore
SplineSet
287 305 m 1
 378 -15 l 1
 248 -15 l 1
 157 305 l 1
 122 430 l 1
 50 685 l 1
 180 685 l 1
 252 430 l 1
 287 305 l 1
EndSplineSet
EndChar

StartChar: bracketright
Encoding: 93 93 65
Width: 352
GlyphClass: 1
Flags: MW
HStem: -158 125<50 178 50 302 50 178> 617 125<50 178 50 302>
VStem: 178 124<-33 617 617 617>
LayerCount: 2
Fore
SplineSet
50 742 m 1
 302 742 l 1
 302 -158 l 1
 50 -158 l 1
 50 -33 l 1
 178 -33 l 1
 178 617 l 1
 50 617 l 1
 50 742 l 1
EndSplineSet
EndChar

StartChar: underscore
Encoding: 95 95 66
Width: 800
GlyphClass: 1
Flags: MW
HStem: -183 125<50 750 50 750>
LayerCount: 2
Fore
SplineSet
750 -183 m 1
 50 -183 l 1
 50 -58 l 1
 750 -58 l 1
 750 -183 l 1
EndSplineSet
EndChar

StartChar: a
Encoding: 97 97 67
AltUni2: 0000e5.ffffffff.0 0000e4.ffffffff.0 0000e3.ffffffff.0 0000e2.ffffffff.0 0000e1.ffffffff.0 0000e0.ffffffff.0 0000e5.ffffffff.0 0000e4.ffffffff.0 0000e3.ffffffff.0 0000e2.ffffffff.0 0000e1.ffffffff.0 0000e0.ffffffff.0
Width: 734
GlyphClass: 1
Flags: MW
HStem: 0 21G<10 150 10 10 584 724 584 584> 680 20G<367 367>
LayerCount: 2
Fore
SplineSet
660 125 m 1
 724 0 l 1
 584 0 l 1
 520 125 l 1
 367 425 l 1
 214 125 l 1
 150 0 l 1
 10 0 l 1
 74 125 l 1
 367 700 l 1
 660 125 l 1
EndSplineSet
EndChar

StartChar: b
Encoding: 98 98 68
Width: 775
GlyphClass: 1
Flags: MW
HStem: 0 125<175 527 175 527> 322 125<175 492 492 509.5 175 527 175 492> 575 125<175 175 175 491 491 492>
VStem: 50 125<125 322 447 575> 556 124<493.5 528.5> 625 125<197 251>
LayerCount: 2
Fore
SplineSet
650 409 m 1xf8
 710 369 750 301 750 223 c 0xf4
 750 100 650 0 527 0 c 2
 50 0 l 1
 50 0 l 1
 50 0 l 1
 50 700 l 1
 491 700 l 2
 595 700 680 615 680 511 c 0
 680 473 669 438 650 409 c 1xf8
175 575 m 1
 175 447 l 1
 492 447 l 2
 527 447 556 476 556 511 c 0xf8
 556 546 527 575 492 575 c 2
 175 575 l 1
527 125 m 1
 527 126 l 1
 581 126 625 170 625 224 c 0xf4
 625 278 581 322 527 322 c 2
 175 322 l 1
 175 125 l 1
 527 125 l 1
EndSplineSet
EndChar

StartChar: c
Encoding: 99 99 69
AltUni2: 0000e7.ffffffff.0 0000e7.ffffffff.0
Width: 790
GlyphClass: 1
Flags: MW
HStem: 0 125<293.5 740 390 740> 575 125<328 740 390 740>
VStem: 40 125<288 412 288 446.5>
LayerCount: 2
Fore
SplineSet
390 575 m 2
 266 575 165 474 165 350 c 0
 165 226 266 125 390 125 c 2
 740 125 l 1
 740 0 l 1
 390 0 l 2
 197 0 40 157 40 350 c 0
 40 543 197 700 390 700 c 2
 740 700 l 1
 740 575 l 1
 390 575 l 2
EndSplineSet
EndChar

StartChar: d
Encoding: 100 100 70
Width: 800
GlyphClass: 1
Flags: MW
HStem: 0 124<174 399 399 400> 574 125<174 495.5> 680 20G<50 400 400 400>
VStem: 50 124<124 574 124 700> 624 125<307 411>
LayerCount: 2
Fore
SplineSet
400 700 m 1xb8
 399 699 l 1xd8
 592 699 749 543 749 350 c 0
 749 264 718 185 666 124 c 0
 660 117 653 110 646 103 c 0
 583 39 496 0 400 0 c 2
 50 0 l 1
 50 700 l 1
 400 700 l 1xb8
399 124 m 2xb8
 523 124 624 225 624 349 c 0
 624 473 523 574 399 574 c 2
 174 574 l 1xd8
 174 124 l 1
 399 124 l 2xb8
EndSplineSet
EndChar

StartChar: e
Encoding: 101 101 71
AltUni2: 0000eb.ffffffff.0 0000ea.ffffffff.0 0000e9.ffffffff.0 0000e8.ffffffff.0 0000eb.ffffffff.0 0000ea.ffffffff.0 0000e9.ffffffff.0 0000e8.ffffffff.0
Width: 800
GlyphClass: 1
Flags: MW
HStem: 0 125<187 750 239 750> 321 125<175 625 175 625> 575 125<221.5 750 239 750>
VStem: 51 124<189 321 446 511>
LayerCount: 2
Fore
SplineSet
239 575 m 2
 204 575 175 546 175 511 c 2
 175 446 l 1
 625 446 l 1
 625 321 l 1
 175 321 l 1
 175 189 l 2
 175 154 204 125 239 125 c 2
 750 125 l 1
 750 0 l 1
 239 0 l 2
 135 0 51 85 51 189 c 2
 51 511 l 2
 51 615 135 700 239 700 c 2
 750 700 l 1
 750 575 l 1
 239 575 l 2
EndSplineSet
EndChar

StartChar: f
Encoding: 102 102 72
Width: 800
GlyphClass: 1
Flags: MW
HStem: 1 21G<51 175 51 51> 322 125<176 626 176 626 175 626> 576 124<222.5 239 187 240 187 751> 681 20G<751 751>
VStem: 51 124<1 322 1 511>
LayerCount: 2
Fore
SplineSet
239 700 m 2xe8
 751 701 l 1xd8
 751 576 l 1
 240 576 l 2
 205 576 176 547 176 512 c 2
 176 447 l 1
 626 447 l 1
 626 322 l 1
 175 322 l 1
 175 1 l 1
 51 1 l 1
 51 511 l 2
 51 615 135 700 239 700 c 2xe8
EndSplineSet
EndChar

StartChar: g
Encoding: 103 103 73
Width: 800
GlyphClass: 1
Flags: MW
HStem: 0 125<303.5 625 400 625 400 750> 259 125<400 625 400 750> 575 125<338 750 400 750>
VStem: 50 125<288 412 288 446.5> 625 125<125 259 259 259>
LayerCount: 2
Fore
SplineSet
400 575 m 2
 276 575 175 474 175 350 c 0
 175 226 276 125 400 125 c 2
 625 125 l 1
 625 259 l 1
 400 259 l 1
 400 384 l 1
 750 384 l 1
 750 0 l 1
 400 0 l 2
 207 0 50 157 50 350 c 0
 50 543 207 700 400 700 c 2
 750 700 l 1
 750 575 l 1
 400 575 l 2
EndSplineSet
EndChar

StartChar: h
Encoding: 104 104 74
Width: 800
GlyphClass: 1
Flags: MW
HStem: 0 21G<50 175 50 50 625 750 625 625> 321 125<175 625 175 625> 680 20G<50 175 175 175 625 750 750 750>
VStem: 50 125<0 321 446 700> 625 125<0 321 321 321 446 700 0 700>
LayerCount: 2
Fore
SplineSet
625 700 m 1
 750 700 l 1
 750 0 l 1
 625 0 l 1
 625 321 l 1
 175 321 l 1
 175 0 l 1
 50 0 l 1
 50 700 l 1
 175 700 l 1
 175 446 l 1
 625 446 l 1
 625 700 l 1
EndSplineSet
EndChar

StartChar: i
Encoding: 105 105 75
AltUni2: 0000ef.ffffffff.0 0000ee.ffffffff.0 0000ed.ffffffff.0 0000ec.ffffffff.0 0000ef.ffffffff.0 0000ee.ffffffff.0 0000ed.ffffffff.0 0000ec.ffffffff.0
Width: 225
GlyphClass: 1
Flags: MW
HStem: 0 21G<50 175 50 50> 680 20G<50 175 175 175>
VStem: 50 125<0 700>
LayerCount: 2
Fore
SplineSet
175 0 m 1
 50 0 l 1
 50 700 l 1
 175 700 l 1
 175 0 l 1
EndSplineSet
EndChar

StartChar: j
Encoding: 106 106 76
Width: 800
GlyphClass: 1
Flags: MW
HStem: 1 124<187 561 239 561> 680 20G<625 750 750 750>
VStem: 50 125<189 320> 625 125<189 700>
LayerCount: 2
Fore
SplineSet
625 700 m 1
 750 700 l 1
 750 189 l 2
 750 85 665 1 561 1 c 2
 239 1 l 2
 135 1 50 85 50 189 c 2
 50 320 l 1
 175 320 l 1
 175 189 l 2
 175 154 204 125 239 125 c 2
 561 125 l 2
 596 125 625 154 625 189 c 2
 625 700 l 1
EndSplineSet
EndChar

StartChar: k
Encoding: 107 107 77
Width: 800
GlyphClass: 1
Flags: MW
HStem: 0 21G<49 174 49 49 593 747 593 593> 680 20G<49 174 174 174 565 750 750 750>
VStem: 49 125<0 173 342 700>
LayerCount: 2
Fore
SplineSet
750 700 m 1
 444 419 l 1
 747 0 l 1
 593 0 l 1
 351 334 l 1
 174 173 l 1
 174 0 l 1
 49 0 l 1
 49 700 l 1
 174 700 l 1
 174 342 l 1
 277 436 l 1
 370 521 l 1
 565 700 l 1
 750 700 l 1
EndSplineSet
EndChar

StartChar: l
Encoding: 108 108 78
Width: 677
GlyphClass: 1
Flags: MW
HStem: -1 125<272 627> 679 20G<50 175 175 175>
VStem: 50 125<222 699 210 699>
LayerCount: 2
Fore
SplineSet
260 125 m 1
 627 124 l 1
 627 -1 l 1
 272 -1 l 2
 237 -1 204 7 174 22 c 0
 130 44 94 80 73 124 c 0
 58 154 50 187 50 222 c 2
 50 699 l 1
 175 699 l 1
 175 210 l 1
 181 166 216 131 260 125 c 1
EndSplineSet
EndChar

StartChar: m
Encoding: 109 109 79
Width: 800
GlyphClass: 1
Flags: MW
HStem: 0 21G<50 175 50 50 625 750 625 625> 680 20G<50 50 750 750>
VStem: 50 125<0 446> 625 125<0 446 446 446 604 604>
LayerCount: 2
Fore
SplineSet
625 604 m 1
 750 700 l 1
 750 0 l 1
 625 0 l 1
 625 446 l 1
 502 352 l 1
 400 273 l 1
 298 352 l 1
 175 446 l 1
 175 0 l 1
 50 0 l 1
 50 700 l 1
 175 604 l 1
 400 431 l 1
 625 604 l 1
EndSplineSet
EndChar

StartChar: n
Encoding: 110 110 80
AltUni2: 0000f1.ffffffff.0 0000f1.ffffffff.0
Width: 800
GlyphClass: 1
Flags: MW
HStem: -1 21G<50 175 50 50 750 750> 680 20G<625 625>
VStem: 50 125<-1 442> 625 125<95 95 254 699 -1 700 -1 700>
LayerCount: 2
Fore
SplineSet
625 700 m 1
 750 699 l 1
 750 -1 l 1
 625 95 l 1
 175 442 l 1
 175 -1 l 1
 50 -1 l 1
 50 697 l 1
 175 601 l 1
 625 254 l 1
 625 700 l 1
EndSplineSet
EndChar

StartChar: o
Encoding: 111 111 81
AltUni2: 0000f8.ffffffff.0 0000f6.ffffffff.0 0000f5.ffffffff.0 0000f4.ffffffff.0 0000f3.ffffffff.0 0000f2.ffffffff.0 0000f8.ffffffff.0 0000f6.ffffffff.0 0000f5.ffffffff.0 0000f4.ffffffff.0 0000f3.ffffffff.0 0000f2.ffffffff.0
Width: 750
GlyphClass: 1
Flags: MW
HStem: 0 125 575 125<353.065 396.683>
VStem: 26 125 601 125
LayerCount: 2
Fore
SplineSet
439 134.282226562 m 1
 531.956054688 161.938476562 600 248.221679688 600 350 c 0
 600 389.416992188 589.856445312 426.543945312 571.887695312 458.7734375 c 0
 571.764648438 458.994140625 686.186523438 510.116210938 686.186523438 510.116210938 c 1
 710.986328125 462.108398438 725 407.661132812 725 350 c 0
 725 178.853515625 601.541015625 36.015625 439 5.86328125 c 0
 438.151367188 5.7060546875 439 134.282226562 439 134.282226562 c 1
312 5.6787109375 m 1
 148.96484375 35.4306640625 25 178.502929688 25 350 c 0
 25 417.244140625 76 534 76 534 c 1
 180.157226562 462.37890625 l 1
 160.984375 429.286132812 150 390.893554688 150 350 c 0
 150 247.857421875 218.532226562 161.3203125 312 133.987304688 c 1
 312 5.6787109375 l 1
493.3203125 541.278320312 m 0
 458.916992188 562.647460938 418.365234375 575 375 575 c 0
 331.129882812 575 290.138671875 562.358398438 255.48046875 540.528320312 c 0
 254.170898438 539.703125 182.748046875 642.353515625 182.748046875 642.353515625 c 1
 237.958007812 678.780273438 304.046875 700 375.000976562 700 c 0
 450.1875 700 577.016601562 635.672851562 577.016601562 635.672851562 c 1
 577.016601562 635.672851562 494 541 493.3203125 541.278320312 c 0
255.479492188 540.528320312 m 1024
EndSplineSet
EndChar

StartChar: p
Encoding: 112 112 82
Width: 730
GlyphClass: 1
Flags: MW
HStem: 0 21G<51 176 51 51> 322 124<176 493 493 497.5 176 511 176 493> 575 125<176 492 492 493 176 176>
VStem: 51 125<0 322 0 446 446 575> 557 124<498.5 522.5>
LayerCount: 2
Fore
SplineSet
625 645 m 2
 626 644 l 2
 660 609 681 562 681 510 c 0
 681 434 636 368 571 338 c 0
 554 330 536 325 517 323 c 2
 511 323 l 1
 511 322 l 1
 176 322 l 1
 176 0 l 1
 51 0 l 1
 51 700 l 1
 51 700 l 1
 51 700 l 1
 492 700 l 2
 544 700 591 679 625 645 c 2
519 452 m 1
 519 453 l 1
 542 463 557 486 557 511 c 0
 557 534 545 550 538 557 c 0
 530 565 515 575 493 575 c 2
 176 575 l 1
 176 446 l 1
 493 446 l 2
 502 446 511 448 519 452 c 1
EndSplineSet
EndChar

StartChar: q
Encoding: 113 113 83
Width: 800
GlyphClass: 1
Flags: MW
HStem: 0 125<399 399 399 400 400 403 403 405 667 749> 575 125<337 461>
VStem: 50 124<288 412 288 446.5> 624 126<350 412>
LayerCount: 2
Fore
SplineSet
750 350 m 1
 749 350 l 1
 749 264 718 186 667 125 c 1
 749 125 l 1
 749 0 l 1
 403 0 l 1
 400 0 l 2
 207 0 50 157 50 350 c 0
 50 543 207 700 400 700 c 0
 593 700 750 543 750 350 c 1
405 125 m 2
 526 128 624 228 624 350 c 0
 624 474 523 575 399 575 c 0
 275 575 174 474 174 350 c 0
 174 226 275 125 399 125 c 1
 399 125 l 1
 405 125 l 2
EndSplineSet
EndChar

StartChar: r
Encoding: 114 114 84
Width: 730
GlyphClass: 1
Flags: MW
HStem: -2 21G<49 174 49 49 539 679 539 539> 320 124<174 299 174 174> 573 125<174 491 174 174>
VStem: 49 125<-2 320 444 573> 555 124<496.5 520.5>
LayerCount: 2
Fore
SplineSet
515 323 m 1
 615 123 l 1
 679 -2 l 1
 539 -2 l 1
 475 123 l 1
 408 254 l 1
 405 260 l 2
 383 296 344 320 299 320 c 2
 174 320 l 1
 174 -2 l 1
 49 -2 l 1
 49 698 l 1
 491 698 l 2
 543 698 590 677 624 643 c 0
 658 609 679 562 679 510 c 0
 679 434 634 368 569 338 c 0
 552 330 534 325 515 323 c 1
 515 323 l 1
174 444 m 1
 491 445 l 2
 500 445 509 447 517 451 c 0
 540 461 555 484 555 509 c 0
 555 532 543 548 536 555 c 0
 528 563 513 573 491 573 c 2
 174 573 l 1
 174 444 l 1
EndSplineSet
EndChar

StartChar: s
Encoding: 115 115 85
AltUni2: 0000df.ffffffff.0 0000df.ffffffff.0
Width: 762
GlyphClass: 1
Flags: MW
HStem: 0 125<211 491 272 491> 0 221<51 272 51 491> 317 125<213.5 491 239 491> 506 194<175 523 239 587> 574 126<221.5 523 239 523>
VStem: 51 125<194.5 221 194.5 221> 588 124<194.5 247.5>
LayerCount: 2
Fore
SplineSet
712 507 m 1x76
 587 506 l 1xb6
 587 510 l 2
 587 545 558 574 523 574 c 2
 239 574 l 2xae
 204 574 175 545 175 510 c 2
 175 506 l 2
 175 471 204 442 239 442 c 2
 491 442 l 2
 556 442 614 414 654 370 c 0
 657 367 659 364 662 361 c 0
 693 323 712 274 712 221 c 0
 712 99 613 0 491 0 c 2
 272 0 l 2
 150 0 51 99 51 221 c 1
 176 221 l 1x76
 176 168 219 125 272 125 c 2
 491 125 l 2xb6
 544 125 588 168 588 221 c 0
 588 274 544 317 491 317 c 2
 239 317 l 2
 188 317 142 337 108 370 c 0
 99 379 91 389 84 400 c 0
 63 430 51 467 51 507 c 2
 51 511 l 2
 51 615 135 700 239 700 c 2
 523 700 l 2
 627 700 712 615 712 511 c 2
 712 507 l 1x76
EndSplineSet
EndChar

StartChar: t
Encoding: 116 116 86
Width: 800
GlyphClass: 1
Flags: MW
HStem: -1 21G<337 462 337 337> 574 125<50 337 50 749 462 749 462 462>
VStem: 337 125<-1 574 -1 574>
LayerCount: 2
Fore
SplineSet
50 699 m 1
 749 699 l 1
 749 574 l 1
 462 574 l 1
 462 -1 l 1
 337 -1 l 1
 337 574 l 1
 50 574 l 1
 50 699 l 1
EndSplineSet
EndChar

StartChar: u
Encoding: 117 117 87
AltUni2: 0000fc.ffffffff.0 0000fb.ffffffff.0 0000fa.ffffffff.0 0000f9.ffffffff.0 0000fc.ffffffff.0 0000fb.ffffffff.0 0000fa.ffffffff.0 0000f9.ffffffff.0
Width: 800
GlyphClass: 1
Flags: MW
HStem: 0 125<338 462 338 496.5> 680 20G<50 175 175 175 293 293 293 514 625 750 750 750>
VStem: 50 125<350 700> 625 125<350 700>
LayerCount: 2
Fore
SplineSet
293 700 m 1
 294 572 l 1
 516 571 l 1
 514 700 l 1
 293 700 l 1
625 700 m 1
 750 700 l 1
 750 350 l 2
 750 157 593 0 400 0 c 0
 207 0 50 157 50 350 c 2
 50 700 l 1
 175 700 l 1
 175 350 l 2
 175 226 276 125 400 125 c 0
 524 125 625 226 625 350 c 2
 625 700 l 1
EndSplineSet
EndChar

StartChar: v
Encoding: 118 118 88
Width: 734
GlyphClass: 1
Flags: MW
HStem: 0 21G<366 366> 680 20G<9 149 149 149 583 723 723 723>
LayerCount: 2
Fore
SplineSet
583 700 m 1
 723 700 l 1
 659 575 l 1
 366 0 l 1
 73 575 l 1
 9 700 l 1
 149 700 l 1
 213 575 l 1
 366 275 l 1
 519 575 l 1
 583 700 l 1
EndSplineSet
EndChar

StartChar: w
Encoding: 119 119 89
Width: 978
GlyphClass: 1
Flags: HMW
HStem: 0 21G<719 719 719 719 719 719> 680 20G<50 180 180 180 798 928 928 928>
LayerCount: 2
Fore
SplineSet
928 700 m 1
 764 151 l 1
 764 151 l 1
 719 0 l 1
 719 0 l 1
 719 0 l 1
 627 128 l 1
 627 128 l 1
 488 319 l 1
 350 128 l 1
 258 1 l 1
 258 1 l 1
 258 1 l 1
 213 151 l 1
 50 700 l 5
 180 700 l 5
 306 278 l 1
 306 278 l 1
 306 278 l 1
 412 425 l 1
 432 453 l 1
 489 531 l 1
 546 453 l 1
 566 425 l 1
 672 278 l 1
 798 700 l 1
 928 700 l 1
EndSplineSet
EndChar

StartChar: x
Encoding: 120 120 90
Width: 750
GlyphClass: 1
Flags: MW
HStem: -3 21G<25 25 725 725> 679 20G<26 184 184 184 568 725 725 727 727 727>
LayerCount: 2
Fore
SplineSet
27 -1 m 1
 25 -3 l 1
 25 -1 l 1
 27 -1 l 1
725 -1 m 1
 725 -3 l 1
 724 -1 l 1
 725 -1 l 1
725 699 m 1
 727 699 l 1
 456 348 l 1
 726 -1 l 1
 568 -1 l 1
 377 246 l 1
 186 -1 l 1
 28 -1 l 1
 297 348 l 1
 26 699 l 1
 184 699 l 1
 376 450 l 1
 568 699 l 1
 725 699 l 1
EndSplineSet
EndChar

StartChar: y
Encoding: 121 121 91
AltUni2: 0000ff.ffffffff.0 0000fd.ffffffff.0 0000ff.ffffffff.0 0000fd.ffffffff.0
Width: 800
GlyphClass: 1
Flags: MW
HStem: -20 20G<49 51 51 51 748 749 749 749> -2 21G<49 49 749 749> 681 20G<50 208 208 208 592 749 749 749 749 749>
VStem: 338 125<1 329 329 329>
LayerCount: 2
Fore
SplineSet
592 701 m 1x70
 749 701 l 1
 749 701 l 1
 478 350 l 1
 478 350 l 1
 463 331 l 1
 463 1 l 1
 338 1 l 1
 338 329 l 1
 321 350 l 1
 321 350 l 1
 50 701 l 1
 208 701 l 1
 400 452 l 1
 592 701 l 1x70
51 0 m 1xb0
 49 -2 l 1
 49 0 l 1
 51 0 l 1xb0
749 0 m 1
 749 -2 l 1
 748 0 l 1
 749 0 l 1
EndSplineSet
EndChar

StartChar: z
Encoding: 122 122 92
Width: 800
GlyphClass: 1
Flags: MW
HStem: -1 21G<53 211 53 53> 0 125<54 150 306 753 150 212> 574 125<52 497 52 593 653 653>
LayerCount: 2
Fore
SplineSet
306 125 m 1x60
 753 125 l 1
 753 0 l 1
 212 0 l 1x60
 211 -1 l 1
 53 -1 l 1xa0
 54 0 l 1
 150 125 l 1
 322 348 l 1
 401 450 l 1
 497 574 l 1
 52 574 l 1
 52 699 l 1
 593 699 l 1
 593 699 l 1
 750 699 l 1
 750 699 l 1
 653 574 l 1
 479 348 l 1
 400 246 l 1
 306 125 l 1x60
EndSplineSet
EndChar

StartChar: braceleft
Encoding: 123 123 93
Width: 381
GlyphClass: 1
Flags: MW
HStem: -156 125<270.5 331 274 331> 230 125<50 107 50 107> 616 125<269 331 274 331>
VStem: 128 125<-10 209 -15 213 -15 213 372 375 375 595 595 599> 128 203<-156 213 616 632>
CounterMasks: 1 e0
LayerCount: 2
Fore
SplineSet
274 -32 m 2xf0
 331 -31 l 1
 331 -156 l 1xe8
 274 -156 l 2
 267 -156 260 -156 253 -155 c 0
 182 -145 128 -84 128 -10 c 2
 128 213 l 2
 126 223 117 230 107 230 c 2
 50 230 l 1
 50 355 l 1
 107 355 l 2
 117 355 126 362 128 372 c 2
 128 595 l 2
 128 669 182 730 253 740 c 0xf0
 260 741 267 741 274 741 c 2
 331 741 l 1
 331 616 l 1xe8
 274 616 l 2
 264 616 255 609 253 599 c 2
 253 375 l 2
 253 368 253 361 252 354 c 0
 249 331 240 310 227 292 c 1
 240 274 249 253 252 230 c 0
 253 223 253 216 253 209 c 2
 253 -15 l 2
 255 -25 264 -32 274 -32 c 2xf0
EndSplineSet
EndChar

StartChar: braceright
Encoding: 125 125 94
Width: 381
GlyphClass: 1
Flags: MW
HStem: -147 125<50 107 50 107> 239 125 626 125<50 107 50 107>
VStem: 50 203<-38 -22 -22 -22> 128 125<-5 -1 -1 219 219 222 385 605>
LayerCount: 2
Fore
SplineSet
274 365 m 2xf0
 331 363 l 1
 331 250 l 1
 331 239 l 1
 274 239 l 2
 264 239 255 232 253 222 c 2
 253 -1 l 2
 253 -75 199 -136 128 -146 c 0xe8
 121 -147 114 -147 107 -147 c 2
 50 -147 l 1
 50 -22 l 1xf0
 107 -22 l 2
 117 -22 126 -15 128 -5 c 2
 128 219 l 2
 128 226 128 233 129 240 c 0
 132 263 141 284 154 302 c 1
 141 320 132 341 129 364 c 0
 128 371 128 378 128 385 c 2
 128 609 l 2xe8
 126 619 117 626 107 626 c 2
 50 626 l 1
 50 751 l 1xf0
 107 751 l 2
 114 751 121 751 128 750 c 0xe8
 199 740 253 679 253 605 c 2
 253 382 l 2
 255 372 264 365 274 365 c 2xf0
EndSplineSet
EndChar

StartChar: asciitilde
Encoding: 126 126 95
Width: 591
GlyphClass: 1
Flags: MW
HStem: 295 117 397 20G<539 539>
LayerCount: 2
Fore
SplineSet
331 376 m 1x80
 329 376 l 1
 416 335 451 360 539 417 c 1x40
 539 294 l 1
 473 240 399 220 294 260 c 1
 294 260 l 1
 294 260 l 1
 283 264 271 269 259 275 c 0
 226 290 201 296 178 295 c 0
 139 293 105 270 50 234 c 1
 50 234 l 1
 50 234 l 1
 50 357 l 1
 92 391 136 411 189 412 c 0
 221 413 256 406 296 391 c 1
 296 391 l 1
 296 391 l 1
 307 387 319 382 331 376 c 1x80
EndSplineSet
EndChar

StartChar: sterling
Encoding: 163 163 97
Width: 753
GlyphClass: 1
Flags: MW
HStem: -16 125<302 704 302 704> 281 125<51 177 51 177 302 527> 559 125<348.5 514 366 514>
VStem: 177 125<109 281 109 281 109 281 406 495> 578 126
LayerCount: 2
Fore
SplineSet
703 406 m 1
 578 406 l 1
 578 495 l 2
 578 530 549 559 514 559 c 2
 366 559 l 2
 331 559 302 530 302 495 c 2
 302 406 l 1
 527 406 l 1
 527 281 l 1
 302 281 l 1
 302 109 l 1
 704 109 l 1
 704 -16 l 1
 177 -16 l 1
 177 281 l 1
 51 281 l 1
 51 406 l 1
 177 406 l 1
 177 495 l 2
 177 517 181 539 188 559 c 0
 214 632 284 684 366 684 c 2
 514 684 l 2
 596 684 666 632 692 559 c 0
 699 539 703 517 703 495 c 2
 703 406 l 1
EndSplineSet
EndChar

StartChar: multiply
Encoding: 215 215 99
Width: 524
GlyphClass: 1
Flags: MW
HStem: 118 21G<138 138 385 385> 522 20G<138 138 386 386>
LayerCount: 2
Fore
SplineSet
474 454 m 1
 349 330 l 1
 473 206 l 1
 385 118 l 1
 262 242 l 1
 138 118 l 1
 50 206 l 1
 174 330 l 1
 50 454 l 1
 138 542 l 1
 262 418 l 1
 386 542 l 1
 474 454 l 1
EndSplineSet
EndChar

StartChar: divide
Encoding: 247 247 100
Width: 574
GlyphClass: 1
Flags: MW
HStem: 94 125<225 350 225 350> 268 125<50 524 50 524> 443 125<225 350 225 350>
VStem: 225 125<94 219 443 568>
LayerCount: 2
Fore
SplineSet
524 268 m 1
 50 268 l 1
 50 393 l 1
 524 393 l 1
 524 268 l 1
350 443 m 1
 225 443 l 1
 225 568 l 1
 350 568 l 1
 350 443 l 1
350 94 m 1
 225 94 l 1
 225 219 l 1
 350 219 l 1
 350 94 l 1
EndSplineSet
EndChar

StartChar: quoteleft
Encoding: 8216 8216 101
Width: 225
GlyphClass: 1
Flags: MW
HStem: 500 250<51 113 51 176 51 113>
VStem: 51 125<500 625 500 750>
LayerCount: 2
Fore
SplineSet
175 625 m 1
 176 625 l 1
 176 500 l 1
 51 500 l 1
 51 750 l 1
 113 750 l 1
 175 625 l 1
EndSplineSet
EndChar

StartChar: quoteright
Encoding: 8217 8217 102
Width: 225
GlyphClass: 1
Flags: MW
HStem: 500 250<112 174 112 112>
VStem: 50 124<625 625 625 750 500 750>
LayerCount: 2
Fore
SplineSet
50 750 m 1
 174 750 l 1
 174 500 l 1
 112 500 l 1
 50 625 l 1
 50 625 l 1
 50 750 l 1
EndSplineSet
EndChar

StartChar: quotedblleft
Encoding: 8220 8220 103
Width: 384
GlyphClass: 1
Flags: MW
HStem: 499 250<51 113 51 176 51 113 210 272 51 335 51 210>
VStem: 51 125<499 624 499 749> 210 125<499 624 499 749>
LayerCount: 2
Fore
SplineSet
334 624 m 1
 335 624 l 1
 335 499 l 1
 210 499 l 1
 210 749 l 1
 272 749 l 1
 334 624 l 1
113 749 m 1
 176 624 l 1
 176 624 l 1
 176 499 l 1
 51 499 l 1
 51 749 l 1
 113 749 l 1
EndSplineSet
EndChar

StartChar: quotedblright
Encoding: 8221 8221 104
Width: 384
GlyphClass: 1
Flags: MW
HStem: 499 250<112 174 112 112 271 271 271 333>
VStem: 49 125<499 749> 209 124<624 624 624 749 499 749>
LayerCount: 2
Fore
SplineSet
50 624 m 1
 49 749 l 1
 174 749 l 1
 174 499 l 1
 112 499 l 1
 50 624 l 1
 50 624 l 1
209 749 m 1
 333 749 l 1
 333 499 l 1
 271 499 l 1
 209 624 l 1
 209 624 l 1
 209 749 l 1
EndSplineSet
EndChar

StartChar: Euro
Encoding: 8364 8364 105
Width: 770
GlyphClass: 1
Flags: MW
HStem: -16 125<428.5 720 498 720> 183 125<51 149 51 183 51 149 51 183 332 600 332 332 332 332> 371 125<51 150 51 188 150 150 340 600 51 276 51 276> 560 125<467.5 720 498 720>
LayerCount: 2
Fore
SplineSet
720 560 m 1
 498 560 l 2
 437 560 381 536 340 496 c 1
 600 496 l 1
 600 371 l 1
 276 371 l 1
 276 371 l 1
 274 359 273 347 273 335 c 0
 273 326 273 317 274 308 c 1
 600 308 l 1
 600 183 l 1
 332 183 l 1
 332 183 l 1
 373 138 432 109 498 109 c 2
 720 109 l 1
 720 -16 l 1
 498 -16 l 2
 359 -16 239 65 183 183 c 1
 183 183 l 1
 51 183 l 1
 51 308 l 1
 149 308 l 1
 149 335 l 2
 149 347 149 359 150 371 c 1
 150 371 l 1
 51 371 l 1
 51 496 l 1
 188 496 l 1
 246 608 363 685 498 685 c 2
 720 685 l 1
 720 560 l 1
EndSplineSet
EndChar
